# xmcd
#
# Track frame offsets:
#	150
#	15183
#	29824
#	49544
#	65546
#	84701
#	100717
#	114679
#	129725
#	147167
#	163329
#	184370
#	202153
#	216772
#	232817
#	251412
#	269451
#	282374
#	296406
#	310881
#
# Disc length: 4331 seconds
#
# Revision: 0
# Processed by: cddbd v1.5.2PL0 Copyright (c) Steve Scherf et al.
# Submitted via: EasyCDDAExtractor 16.0.6.1
#
DISCID=2f10e914
DTITLE=Συλλογικός δίσκος - Τα ρεμπέτικα Α 1850-1922 03 Β
DYEAR=2010
DGENRE=Ρεμπέτικη
TTITLE0=Ξηρέλλης Τίτος - Ανάμνησις Σμύρνης [Τιμόθ. Ξανθόπουλος-Γ. Βοτζαλίδης, 
TTITLE0=Βερολίνο 1920]
TTITLE1=Διαμαντίδης Αντώνης ή Νταλγκάς - Μανές της καληνυχτιάς [Αθήνα 26.11.19
TTITLE1=29]
TTITLE2=Καραπιπέρης Μανώλης - Αϊντίνικο [ζεϊμπέκ., Ν. Υόρκη 29.4.1929]
TTITLE3=Παπαγκίκα Μαρίκα - Μανταλένα [ζεϊμπεκ., Ν. Υόρκη 6.1926]
TTITLE4=Ιωαννίδης Γιαννάκης - Τούτ' οι μπάτσοι πού 'ρθαν τώρα [ρεμπ. ζεϊμπ., Ν
TTITLE4=Υόρκ 1928]
TTITLE5=Σμυρναία Μαρία - Η ζωντοχήρα [Παν. Τούντας, Ν. Υόρκη 17.9.1919]
TTITLE6=Μενεμενλής Λευτέρης - Μανέ Μπουρνοβαλιά [ΚΠολη 2.1911]
TTITLE7=Διαμαντίδης Αντώνης ή Νταλγκάς - Χασαπάκι δε σε θέλω πια [Αθήνα 1929]
TTITLE8=Παπαγκίκα Μαρίκα - Ο Κουμπούρας απ' τη Βάθη [Σπ. Στάμος, Σικάγο 1920]
TTITLE9=Κούλα κυρία - Οι μπαγλαμάδες [Ν. Υόρκη 1920]
TTITLE10=Κατσαρός Γιώργος - Έρχομαι τον τοίχο, τοίχο [ζεϊμπ. βαρύ, Ν. Υόρκη 4.
TTITLE10=6.1930]
TTITLE11=Κρητικός Χαρίλαος-Ασημακόπουλος Επαμεινώνδας - Το Ουέστ [ζεϊμπ., Σικά
TTITLE11=γο 29.5.1935]
TTITLE12=Διαμαντίδης Αντώνης ή Νταλγκάς - Ο δερβίσης [ζεϊμπέκικο, Αθήνα 26.11.
TTITLE12=1929]
TTITLE13=Μενεμενλής Λευτέρης - Δε μού λέτε το χασίσι πού πουλιέται [Αθήνα 1927
TTITLE13=]
TTITLE14=Παπαγκίκα Μαρίκα - Μέσ' στου Συγγρού τη φυλακή [Ν. Υόρκη 11.1926]
TTITLE15=Ιωαννίδης Γιαννάκης - Από κάτω απ' τις ντομάτες [ρεμπ. ζεϊμπέκικο, Ν.
TTITLE15=Υόρκη 1928]
TTITLE16=Καρίπης Κώστας - Σαν πας στα ξένα [ρεμπέτικο, Αθήνα 1930]
TTITLE17=Κούλα κυρία - Ταμπαχανιώτικο [Ν. Υόρκη 1916 ή 1917]
TTITLE18=Διαμαντίδης Αντώνης ή Νταλγκάς - Πολίτικο ζε¨μπέκικο [Αθήνα 1928]
TTITLE19=Πασχαλίδης Ηρακλής-Δημητριάδης Τέτος - Ο στεναγμός της Σμύρνης [Δ. Π.
TTITLE19=Παύλοβιτς-Σ. Π., Ν. Υόρκη 2.1923]
EXTD=
EXTT0=
EXTT1=
EXTT2=
EXTT3=
EXTT4=
EXTT5=
EXTT6=
EXTT7=
EXTT8=
EXTT9=
EXTT10=
EXTT11=
EXTT12=
EXTT13=
EXTT14=
EXTT15=
EXTT16=
EXTT17=
EXTT18=
EXTT19=
PLAYORDER=
